<?xml version="1.0" standalone="no"?>
<!DOCTYPE svg PUBLIC "-//W3C//DTD SVG 20010904//EN"
 "http://www.w3.org/TR/2001/REC-SVG-20010904/DTD/svg10.dtd">
<svg version="1.0" xmlns="http://www.w3.org/2000/svg"
 width="76.000000pt" height="73.000000pt" viewBox="0 0 76.000000 73.000000"
 preserveAspectRatio="xMidYMid meet">

<g transform="translate(0.000000,73.000000) scale(0.100000,-0.100000)"
fill="#000000" stroke="none">
<path d="M296 654 c-226 -72 -298 -337 -141 -512 62 -69 127 -97 230 -96 96 0
147 21 218 90 58 58 87 130 87 218 0 84 -23 146 -76 205 -82 91 -210 129 -318
95z m92 -172 c2 -39 -2 -69 -9 -78 -11 -13 -11 -41 -5 -229 1 -34 -2 -40 -19
-40 -24 0 -33 45 -34 169 -1 55 -6 84 -16 96 -17 19 -29 137 -14 142 6 2 29 3
52 3 l42 0 3 -63z m78 33 c17 -41 19 -138 3 -167 -6 -11 -12 -64 -12 -117 -2
-77 -5 -96 -17 -96 -9 0 -17 14 -21 40 -9 53 -11 360 -2 368 15 16 35 5 49
-28z"/>
</g>
</svg>
