<?xml version="1.0" standalone="no"?>
<!DOCTYPE svg PUBLIC "-//W3C//DTD SVG 20010904//EN"
 "http://www.w3.org/TR/2001/REC-SVG-20010904/DTD/svg10.dtd">
<svg version="1.0" xmlns="http://www.w3.org/2000/svg"
 width="76.000000pt" height="73.000000pt" viewBox="0 0 76.000000 73.000000"
 preserveAspectRatio="xMidYMid meet">

<g transform="translate(0.000000,73.000000) scale(0.100000,-0.100000)"
fill="#000000" stroke="none">
<path d="M280 655 c-75 -24 -141 -82 -179 -157 -29 -57 -33 -75 -33 -140 0
-94 26 -158 90 -221 67 -66 129 -91 223 -91 97 1 168 32 233 105 54 61 76 121
76 213 0 120 -66 223 -175 276 -60 29 -170 36 -235 15z m-100 -174 c0 -14 16
-39 39 -62 32 -33 45 -39 80 -39 31 0 48 -6 67 -25 l25 -25 26 20 c17 13 41
20 70 20 24 0 53 5 64 10 24 13 49 61 49 95 0 18 5 25 20 25 25 0 25 -15 -1
-65 -30 -56 -57 -83 -88 -87 -25 -3 -26 -6 -26 -64 0 -49 5 -68 28 -102 28
-44 35 -76 15 -70 -12 4 -50 71 -64 113 -5 16 -12 6 -31 -45 -28 -75 -38 -89
-54 -73 -7 7 -1 28 19 69 30 59 59 161 49 170 -10 10 -47 -21 -58 -49 -15 -35
-29 -31 -44 12 -11 32 -40 58 -48 44 -2 -5 -7 -29 -11 -54 -7 -49 13 -129 40
-160 19 -22 18 -41 -3 -37 -11 2 -27 27 -42 66 l-25 63 -27 -61 c-15 -33 -33
-60 -39 -60 -19 0 -23 30 -7 48 19 21 61 112 75 165 9 33 9 37 -9 37 -49 0
-152 140 -119 160 17 11 30 -5 30 -39z m164 13 c22 -21 20 -50 -4 -74 -24 -24
-43 -25 -75 -4 -29 19 -33 55 -9 78 20 20 68 20 88 0z m185 -13 c34 -34 5 -91
-45 -91 -48 0 -70 55 -37 92 21 23 58 23 82 -1z"/>
</g>
</svg>
