<?xml version="1.0" standalone="no"?>
<!DOCTYPE svg PUBLIC "-//W3C//DTD SVG 20010904//EN"
 "http://www.w3.org/TR/2001/REC-SVG-20010904/DTD/svg10.dtd">
<svg version="1.0" xmlns="http://www.w3.org/2000/svg"
 width="76.000000pt" height="73.000000pt" viewBox="0 0 76.000000 73.000000"
 preserveAspectRatio="xMidYMid meet">

<g transform="translate(0.000000,73.000000) scale(0.100000,-0.100000)"
fill="#000000" stroke="none">
<path d="M277 656 c-89 -32 -158 -100 -193 -192 -25 -67 -16 -197 18 -255 36
-61 83 -106 143 -137 43 -23 63 -27 135 -27 70 0 94 4 135 24 64 32 124 93
155 156 33 69 35 189 4 256 -54 116 -166 189 -289 189 -38 -1 -87 -7 -108 -14z
m221 -73 c2 -20 -7 -51 -25 -85 -15 -29 -30 -57 -32 -61 -2 -5 29 -5 68 -1 99
9 102 5 96 -113 -4 -86 -7 -97 -34 -132 -46 -58 -142 -78 -219 -46 -62 26
-161 96 -168 118 -17 50 5 151 36 167 10 6 32 10 49 10 40 0 93 47 122 108 31
67 38 73 73 70 27 -3 31 -7 34 -35z"/>
<path d="M444 602 c-6 -4 -22 -27 -34 -52 -41 -82 -102 -140 -147 -140 -31 0
-53 -37 -53 -90 0 -40 5 -51 38 -82 61 -59 122 -88 181 -88 48 0 121 21 121
35 0 3 -35 4 -77 1 -62 -4 -70 -3 -38 4 22 5 57 12 77 15 42 6 84 36 74 53 -4
7 -17 8 -39 1 -17 -5 -52 -9 -77 -8 l-45 1 63 14 c82 18 102 29 102 59 0 23
-1 23 -77 20 -81 -4 -81 -1 -1 10 50 6 78 25 78 52 0 14 -12 15 -84 9 -55 -5
-87 -3 -91 4 -3 5 10 37 30 69 25 39 35 68 33 87 -3 29 -16 39 -34 26z"/>
</g>
</svg>
