<?xml version="1.0" standalone="no"?>
<!DOCTYPE svg PUBLIC "-//W3C//DTD SVG 20010904//EN"
 "http://www.w3.org/TR/2001/REC-SVG-20010904/DTD/svg10.dtd">
<svg version="1.0" xmlns="http://www.w3.org/2000/svg"
 width="76.000000pt" height="73.000000pt" viewBox="0 0 76.000000 73.000000"
 preserveAspectRatio="xMidYMid meet">

<g transform="translate(0.000000,73.000000) scale(0.100000,-0.100000)"
fill="#000000" stroke="none">
<path d="M300 657 c-95 -27 -185 -109 -214 -194 -24 -71 -21 -177 8 -239 110
-237 446 -244 565 -12 29 57 33 75 33 140 0 54 -6 88 -21 124 -27 62 -100 136
-163 164 -59 26 -150 33 -208 17z m192 -122 c79 -92 95 -122 58 -110 -11 4
-20 3 -19 -2 7 -38 -3 -293 -11 -293 -6 0 -10 64 -10 173 l0 174 -52 59 c-28
32 -58 59 -66 59 -7 0 -45 -27 -83 -60 l-69 -60 0 -172 c0 -109 -4 -173 -10
-173 -6 0 -10 58 -10 155 0 141 -6 176 -25 145 -8 -13 -25 -13 -25 0 0 11 133
141 182 176 18 14 39 23 47 22 9 -2 50 -44 93 -93z m-27 -352 c0 -39 -19 -45
-23 -8 -5 36 -32 32 -32 -5 0 -20 -5 -30 -15 -30 -10 0 -15 10 -15 33 0 43 6
49 50 45 32 -3 35 -6 35 -35z"/>
</g>
</svg>
